
<svg xmlns="http://www.w3.org/2000/svg" viewBox="0 0 55 55">
	<style type="text/css">
		.st0{fill-rule:evenodd;clip-rule:evenodd;fill:url(#messages-path-2_2_);}
		.st1{fill-rule:evenodd;clip-rule:evenodd;fill:url(#messages-path-5_2_);}
	</style>
	<linearGradient id="messages-path-2_2_" gradientUnits="userSpaceOnUse" x1="204.5396" y1="-261.5115" x2="204.5396" y2="-261.3962" gradientTransform="matrix(442 0 0 399.7934 -90379 104554.0625)">
		<stop  offset="0" style="stop-color:#61CDFB"/>
		<stop  offset="1" style="stop-color:#059CFE"/>
	</linearGradient>
	<path id="messages-path-2_1_" class="st0" d="M20.7,44.9c2.2,0.5,4.5,0.8,6.8,0.8c14.1,0,25.5-9.4,25.5-21.1S41.6,3.5,27.5,3.5
		S2,12.9,2,24.6c0,7.5,4.8,14.2,12,17.9c0.1,1.2-0.4,3.1-2.8,5.6c-2.6,2.6,1.5,1.3,5.2-0.5C18.1,46.7,19.7,45.6,20.7,44.9z"/>
	<linearGradient id="messages-path-5_2_" gradientUnits="userSpaceOnUse" x1="418.531" y1="-262.5222" x2="418.531" y2="-262.4069" gradientTransform="matrix(268.125 0 0 238.5648 -112182.1094 62652.5508)">
		<stop  offset="0" style="stop-color:#F8FCFE"/>
		<stop  offset="1" style="stop-color:#E5F1F9"/>
	</linearGradient>
	<path id="messages-path-5_1_" class="st1" d="M40.6,48.8c-1.3,0.3-2.6,0.4-4,0.4c-8.5,0-15.5-5.7-15.5-12.6S28,24,36.5,24
		S52,29.6,52,36.6c0,4.7-3.1,8.8-7.7,10.9c0,0.7,0.3,1.7,1.6,3.1c1.4,1.5-0.8,0.8-2.9-0.3C42,49.8,41.1,49.2,40.6,48.8z"/>
	<ellipse id="messages-path-7_1_" cx="29.5" cy="37.1" rx="2.6" ry="2.6"/>
	<ellipse id="messages-path-9_1_" cx="36.9" cy="37.1" rx="2.6" ry="2.6"/>
	<ellipse id="messages-path-11_1_" cx="44.4" cy="37.1" rx="2.6" ry="2.6"/>
</svg>
