<svg xmlns="http://www.w3.org/2000/svg" width="0" height="0">

	<svg id="icon-previous" viewBox="0 0 13 13">
		<style type="text/css">
			.st0{fill:#333;}
		</style>
		<polygon class="st0" points="9.2,1.6 8.5,0.8 3.5,5.8 3.5,5.8 2.8,6.5 3.5,7.2 8.5,12.2 9.2,11.4 4.2,6.5 "/>
	</svg>

	<svg id="icon-next" viewBox="0 0 13 13">
		<style type="text/css">
			.st0{fill:#333;}
		</style>
		<polygon class="st0" points="2.8,11.4 3.5,12.2 8.5,7.2 8.5,7.2 9.2,6.5 8.5,5.8 3.5,0.8 2.8,1.6 7.8,6.5 "/>
	</svg>

	<svg id="icon-search" viewBox="0 0 13 13">
		<path fill="#cce" d="M8.4,5.7C8.4,4.2,7.2,3,5.7,3S3,4.2,3,5.7s1.2,2.7,2.7,2.7S8.4,7.2,8.4,5.7L8.4,5.7z M11.5,10.8 c0,0.4-0.4,0.8-0.8,0.8c-0.2,0-0.4-0.1-0.5-0.2L8.1,9.2C7.4,9.7,6.6,10,5.7,10c-2.4,0-4.3-1.9-4.3-4.3s1.9-4.3,4.3-4.3 S10,3.4,10,5.7c0,0.9-0.3,1.7-0.7,2.4l2.1,2.1C11.5,10.4,11.5,10.6,11.5,10.8L11.5,10.8z"/>
	</svg>

	<svg id="icon-clock" viewBox="0 0 13 13">
		<path fill="#cce" d="M8,8.9L5.9,6.8V3.9h1.3v2.3L8.9,8L8,8.9z M6.5,1.4c-2.8,0-5.1,2.3-5.1,5.1s2.3,5.1,5.1,5.1s5.1-2.3,5.1-5.1 S9.3,1.4,6.5,1.4z M6.5,10.3c-2.1,0-3.8-1.7-3.8-3.8s1.7-3.8,3.8-3.8s3.8,1.7,3.8,3.8S8.6,10.3,6.5,10.3z"/>
	</svg>

	<svg id="icon-date" viewBox="0 0 13 13">
		<path fill="#cce" d="M4.9,5.2h1.3v1.3H4.9V5.2z M6.8,5.2h1.3v1.3H6.8V5.2z M8.7,5.2H10v1.3H8.7V5.2z M3,9.1h1.3v1.3H3V9.1z  M4.9,9.1h1.3v1.3H4.9V9.1z M6.8,9.1h1.3v1.3H6.8V9.1z M4.9,7.1h1.3v1.3H4.9V7.1z M6.8,7.1h1.3v1.3H6.8V7.1z M8.7,7.1H10v1.3H8.7 V7.1z M3,7.1h1.3v1.3H3V7.1z M10,1.4V2H8.7V1.4H4.2V2H3V1.4H1.7v10.3h9.6V1.4H10z M10.7,11H2.3V3.9h8.4L10.7,11L10.7,11z"/>
	</svg>

	<svg id="icon-info" viewBox="0 0 13 13">
		<path fill="#333" d="M5.7,3.9c0-0.4,0.2-0.6,0.6-0.6h0.4c0.5,0,0.7,0.2,0.7,0.6v0.4c0,0.4-0.2,0.6-0.6,0.6H6.3c-0.4,0-0.6-0.2-0.6-0.6V3.9 L5.7,3.9z"/>
		<path fill="#333" d="M8.2,9.8H4.8V8.9h0.8V6.5H4.8V5.7h2.4v3.2h0.8v0.8H8.2z"/>
		<path fill="#333" d="M6.5,0C2.9,0,0,2.9,0,6.5S2.9,13,6.5,13S13,10.1,13,6.5S10.1,0,6.5,0z M6.5,11.8c-2.9,0-5.3-2.4-5.3-5.3s2.4-5.3,5.3-5.3 s5.3,2.4,5.3,5.3S9.4,11.8,6.5,11.8z"/>
	</svg>

	<svg id="icon-camera" viewBox="0 0 13 13">
		<path d="M11.5,3c0,0-0.1,0-0.1,0c-0.1,0-0.2,0-0.3,0.1L8.8,5.4v-1V3.8c0-0.6-0.5-1-1-1H7.1H2.9H2.3c-0.6,0-1,0.5-1,1v0.7v4.1v0.7 c0,0.6,0.5,1,1,1h0.7h4.1h0.7c0.6,0,1-0.5,1-1V8.6v-1l2.4,2.4c0.1,0.1,0.2,0.1,0.3,0.1c0,0,0.1,0,0.1,0c0.1-0.1,0.2-0.2,0.2-0.3 V3.3C11.8,3.1,11.7,3,11.5,3z"/>
	</svg>

	<svg id="icon-phone" viewBox="0 0 13 13">
		<path d="M9.1,7.6C8.3,8.3,8.3,9.1,7.6,9.1S6.1,8.3,5.4,7.6S3.9,6.1,3.9,5.4s0.7-0.7,1.5-1.5S3.9,1,3.2,1S1,3.2,1,3.2 c0,1.5,1.5,4.4,2.9,5.9S8.3,12,9.8,12c0,0,2.2-1.5,2.2-2.2C12,9.1,9.8,6.9,9.1,7.6z"/>
	</svg>

	<svg id="icon-arrow-right" viewBox="0 0 13 13">
		<path d="M5.2,10.9L1.4,7C1.1,6.7,1.1,6.3,1.4,6l3.8-3.8c0.3-0.3,0.8-0.3,1.1,0c0.3,0.3,0.3,0.8,0,1.1L3.8,5.7h7.3 c0.4,0,0.8,0.3,0.8,0.8s-0.3,0.8-0.8,0.8H3.8l2.5,2.5c0.2,0.2,0.2,0.3,0.2,0.5c0,0.2-0.1,0.4-0.2,0.5C6,11.2,5.5,11.2,5.2,10.9z"/>
	</svg>

	<svg id="icon-arrow-left" viewBox="0 0 13 13">
		<path d="M7.8,2.1L11.6,6c0.3,0.3,0.3,0.8,0,1.1l-3.8,3.8c-0.3,0.3-0.8,0.3-1.1,0c-0.3-0.3-0.3-0.8,0-1.1l2.5-2.5H1.9 c-0.4,0-0.8-0.3-0.8-0.8c0-0.4,0.3-0.8,0.8-0.8h7.3L6.7,3.2C6.6,3.1,6.5,2.9,6.5,2.7s0.1-0.4,0.2-0.5C7,1.8,7.5,1.8,7.8,2.1z"/>
	</svg>

	<svg id="icon-users" viewBox="0 0 13 13">
		<path d="M8.4,9V8.5C9,8.1,9.6,7.1,9.6,6.2c0-1.5,0-2.8-1.9-2.8S5.9,4.7,5.9,6.2c0,1,0.6,1.9,1.2,2.3V9C5,9.2,3.4,10.2,3.4,11.4h8.7 C12.1,10.2,10.4,9.2,8.4,9z"/>
		<path d="M4.1,9.2C4.6,8.9,5.3,8.6,6,8.5C5.9,8.3,5.7,8.1,5.6,7.9C5.3,7.4,5.2,6.8,5.2,6.2c0-0.8,0-1.6,0.3-2.3 c0.3-0.6,0.8-1,1.5-1.2C6.9,2,6.4,1.6,5.3,1.6c-1.9,0-1.9,1.2-1.9,2.8c0,1,0.6,1.9,1.2,2.3v0.5C2.5,7.3,0.9,8.3,0.9,9.6h2.7 C3.8,9.5,3.9,9.3,4.1,9.2L4.1,9.2z"/>
	</svg>

	<svg id="icon-user" viewBox="0 0 13 13">
		<path d="M7.3,8.4V7.8C8.1,7.3,8.8,6.2,8.8,5c0-1.9,0-3.4-2.3-3.4S4.2,3.1,4.2,5c0,1.2,0.7,2.3,1.5,2.8v0.6c-2.6,0.2-4.5,1.5-4.5,3 h10.5C11.8,9.9,9.8,8.6,7.3,8.4L7.3,8.4z"/>
	</svg>

	<svg id="icon-add-user" viewBox="0 0 13 13">
		<path d="M5.2,8.8c0-1.6,1-2.9,2.4-3.4C7.7,5,7.8,4.6,7.8,4.2c0-1.7,0-3-2-3s-2,1.3-2,3c0,1,0.6,2.1,1.3,2.5v0.6 c-2.3,0.2-4,1.3-4,2.6h4.1C5.2,9.5,5.2,9.2,5.2,8.8L5.2,8.8z"/>
		<path d="M8.8,5.8c-1.7,0-3,1.3-3,3s1.3,3,3,3s3-1.3,3-3S10.5,5.8,8.8,5.8z M10.5,9.2H9.2v1.3H8.5V9.2H7.2V8.5h1.3V7.2h0.7v1.3h1.3 V9.2z"/>
	</svg>

	<svg id="icon-remove-user" viewBox="0 0 13 13">
		<path d="M5.2,8.8c0-1.6,1-2.9,2.4-3.4C7.7,5,7.8,4.6,7.8,4.2c0-1.7,0-3-2-3s-2,1.3-2,3c0,1,0.6,2.1,1.3,2.5v0.6 c-2.3,0.2-4,1.3-4,2.6h4.1C5.2,9.5,5.2,9.2,5.2,8.8L5.2,8.8z"/>
		<path d="M8.8,5.8c-1.7,0-3,1.3-3,3s1.3,3,3,3s3-1.3,3-3S10.5,5.8,8.8,5.8z M10.5,9.2H7.2V8.5h3.3V9.2z"/>
	</svg>

	<svg id="icon-return" viewBox="0 0 13 13">
		<path d="M9.9,3v4L4.6,7V5.4L1.8,7.7L4.6,10V8.4l5.9,0l0,0c0.2,0,0.3-0.1,0.5-0.2c0.1-0.1,0.2-0.3,0.2-0.5V3H9.9z"/>
	</svg>

	<svg id="icon-chevron-left" viewBox="0 0 13 13">
		<style type="text/css">
			.st0{fill:none;stroke:#fff;stroke-width:1.75;stroke-linecap:round;stroke-linejoin:round;}
		</style>
		<polyline class="st0" points="4.8,3.1 8.2,6.5 4.8,9.9 "/>
	</svg>

	<svg id="icon-offline" viewBox="0 0 13 13">
		<style type="text/css">
			.st0{fill:none;stroke:#fff;stroke-width:2;stroke-linecap:round;stroke-linejoin:round;}
		</style>
		<circle class="st0" cx="6.5" cy="6.5" r="4.25"/>
	</svg>

	<svg id="icon-online" viewBox="0 0 13 13">
		<style type="text/css">
			.st0{fill:#4a4;stroke:#4a4;stroke-width:2;stroke-linecap:round;stroke-linejoin:round;}
		</style>
		<circle class="st0" cx="6.5" cy="6.5" r="4.25"/>
	</svg>

	<svg id="icon-threads" viewBox="0 0 13 13">
		<style type="text/css">
			.st0{fill:#fff;}
		</style>
		<path class="st0" d="M11.4,10.2c0,0.4,0.2,0.8,0.6,1v0.2c-0.1,0-0.2,0-0.3,0c-0.6,0-1.2-0.3-1.7-0.7c-0.2,0.1-0.5,0.1-0.8,0.1 c-1.5,0-2.7-1.1-2.7-2.4s1.2-2.4,2.7-2.4S12,7,12,8.3c0,0.5-0.2,1-0.5,1.4C11.4,9.9,11.4,10.1,11.4,10.2L11.4,10.2z M5.9,1.6 c2.7,0,4.8,1.7,4.9,3.9c-0.5-0.2-1-0.3-1.5-0.3c-0.9,0-1.8,0.3-2.4,0.9c-0.7,0.6-1,1.4-1,2.3c0,0.4,0.1,0.8,0.3,1.2c0,0-0.1,0-0.1,0 c-0.3,0-0.5,0-0.8,0c-1.1,1.1-2.3,1.2-3.5,1.3v-0.3c0.7-0.3,1.2-0.9,1.2-1.6c0-0.1,0-0.2,0-0.3C1.7,7.9,1,6.8,1,5.6 C1,3.4,3.2,1.6,5.9,1.6L5.9,1.6z"/>
	</svg>

	<svg id="icon-thread" viewBox="0 0 13 13">
		<style type="text/css">
			.st0{fill:#fff;}
		</style>
		<path class="st0" d="M7.1,7.3l0.4-1.6H5.9L5.5,7.3H7.1z M12,4.1l-0.4,1.4c0,0.1-0.1,0.2-0.2,0.2H9.4L8.9,7.3h2c0.1,0,0.1,0,0.2,0.1 c0,0,0.1,0.1,0,0.2L10.8,9c0,0.1-0.1,0.2-0.2,0.2H8.5L8,11.2c0,0.1-0.1,0.2-0.2,0.2H6.4c-0.1,0-0.1,0-0.2-0.1c0,0,0-0.1,0-0.2l0.5-2 H5l-0.5,2.1c0,0.1-0.1,0.2-0.2,0.2H2.9c-0.1,0-0.1,0-0.2-0.1c0,0,0-0.1,0-0.2l0.5-2h-2c-0.1,0-0.1,0-0.2-0.1c0,0,0-0.1,0-0.2 l0.4-1.4c0-0.1,0.1-0.2,0.2-0.2h2.1l0.4-1.6h-2C2,5.7,2,5.7,1.9,5.6c0,0-0.1-0.1,0-0.2L2.2,4c0-0.1,0.1-0.2,0.2-0.2h2.1L5,1.8 c0-0.1,0.1-0.2,0.2-0.2h1.4c0.1,0,0.1,0,0.2,0.1c0,0,0,0.1,0,0.2l-0.5,2H8l0.5-2.1c0-0.1,0.1-0.2,0.2-0.2h1.4c0.1,0,0.1,0,0.2,0.1 c0,0,0,0.1,0,0.2l-0.5,2h2c0.1,0,0.1,0,0.2,0.1C12,4,12,4,12,4.1z"/>
	</svg>

	<svg id="icon-plus" viewBox="0 0 13 13">
		<style type="text/css">
			.st0{fill:#fff;}
		</style>
		<rect class="st0" x="5" y="1" width="2" height="10"/>
		<rect class="st0" x="1" y="5" width="10" height="2"/>
	</svg>

	<svg id="icon-warning" viewBox="0 0 15 15">
		<path fill="#333" d="M13.4,11.1L8.6,2.8C8.3,2.3,7.9,2,7.5,2S6.7,2.3,6.4,2.8l-4.8,8.3C1,12.1,1.5,13,2.7,13h9.6
			C13.5,13,14,12.1,13.4,11.1z M6.9,6.2h1.2v2.9H6.9L6.9,6.2L6.9,6.2z M7.5,11c-0.4,0-0.7-0.3-0.7-0.7c0-0.4,0.3-0.7,0.7-0.7
			s0.7,0.3,0.7,0.7l0,0C8.2,10.7,7.9,11,7.5,11L7.5,11L7.5,11z"/>
	</svg>

	<svg id="icon-giphy" viewBox="0 0 17 17">
		<style type="text/css">
			.st0{fill:#04FF8E;}
			.st1{fill:#FFF152;}
			.st2{fill:#01C5FF;}
			.st3{fill:#8E2FFF;}
			.st4{fill:#FF5B5A;}
			.st5{fill:#999031;}
			.st6{fill:#541C99;}
		</style>
		<rect x="2" y="2" class="st0" width="2" height="13"/>
		<rect x="2" y="0" class="st1" width="9" height="2"/>
		<rect x="2" y="15" class="st2" width="13" height="2"/>
		<rect x="13" y="6" class="st3" width="2" height="9"/>
		<rect x="4" y="2" width="9" height="13"/>
		<polygon class="st4" points="13,4 13,2 11,2 11,0 9,0 9,4 9,6 15,6 15,4 "/>
		<polygon class="st5" points="9,0 9,2 7,2 "/>
		<polygon class="st6" points="15,6 13,6 13,8 "/>
	</svg>

	<svg id="icon-canvas" viewBox="0 0 17 17">
		<style type="text/css">
			.st0{fill:#333;}
		</style>
		<path class="st0" d="M7.6,11.8c1.2,0.5,1.8,1.5,3.2,0c-1.4-1.4-5.5-5.5-5.5-5.5c-1.1,1.1-0.8,1.9,0,3.1c0.8,1.1-1.5,2.3-1.9,2.6
			c-0.5,0.3-2.3,1.4-2.3,2.4C1.1,15.1,2,16,2.7,16c0.9-0.1,1.9-1.4,2.4-2.3C5.8,12.7,6.6,11.2,7.6,11.8z M2.3,14.7
			c-0.3-0.3-0.3-0.5,0-0.8c0.3-0.3,0.5-0.3,0.8,0s0.3,0.5,0,0.8S2.6,15,2.3,14.7z"/>
		<path class="st0" d="M6.2,5.1C6.4,5,9.6,1.5,9.8,1.2c0.1-0.1,0.7-0.3,0.9,0c0.3,0.1,0.5,0.4,0.7,0.5s0,0.3,0,0.4
			C11.2,2.2,8.9,5,8.9,5s3-2.3,3.1-2.3c0.1-0.1,0.5-0.1,0.7,0s3.1,3.8,3.1,4.1c0.1,0.3,0,0.8-0.3,0.9c-0.1,0.3-3.5,3.1-3.7,3.2
			c-0.1,0.1-0.4,0.3-0.7,0c-0.3-0.3-4.9-4.9-5-5C6.1,5.7,6.1,5.4,6.2,5.1z"/>
	</svg>

	<svg id="icon-thunder" viewBox="0 0 17 17">
		<style type="text/css">
			.st0{fill:#333;}
		</style>
		<path class="st0" d="M6.6,1L1,8.5h5.6L2.9,16L16,6.6H8.5L14.1,1H6.6z"/>
	</svg>

	<svg id="icon-smiley" viewBox="0 0 17 17">
		<style type="text/css">
			.st0{fill:none;stroke:#333;stroke-width:1.25;stroke-miterlimit:10;}
			.st1{fill:none;stroke:#333;stroke-width:1.25;stroke-linecap:round;stroke-miterlimit:10;}
		</style>
		<g id="icomoon-ignore">
		</g>
		<circle class="st0" cx="8.5" cy="8.5" r="7"/>
		<circle cx="6.2" cy="6" r="1.1"/>
		<circle cx="11.1" cy="6" r="1.1"/>
		<path class="st1" d="M12.1,11c-0.8,1.1-2.1,1.8-3.6,1.8c-1.3,0-2.5-0.6-3.3-1.5"/>
	</svg>

	<svg id="icon-paperplane" viewBox="0 0 17 17">
		<style type="text/css">
			.st0{fill:#333;}
		</style>
		<path class="st0" d="M15.8,1.1C16,1.2,16,1.5,16,1.6l-2.2,12.8c0,0.1-0.1,0.3-0.2,0.3c-0.1,0-0.1,0.1-0.2,0.1c-0.1,0-0.1,0-0.2,0
			l-3.8-1.5l-2.1,2.4C7.2,15.9,7,16,6.9,16s-0.1,0-0.2,0c-0.2-0.1-0.3-0.2-0.3-0.5v-3l7.3-8.9l-8.9,7.7l-3.3-1.3C1.1,10,1,9.8,1,9.7
			c0-0.2,0.1-0.5,0.2-0.6L15.2,1c0.1,0,0.2,0,0.2,0C15.5,1,15.6,1,15.8,1.1z"/>
	</svg>

	<svg id="icon-paperclip" viewBox="0 0 17 17">
		<style type="text/css">
			.st0{fill:#333;}
		</style>
		<path class="st0" d="M11.2,5.8l-0.9-0.9L5.5,9.6c-0.8,0.8-0.8,2.1,0,2.8c0.8,0.8,2.1,0.8,2.8,0l5.7-5.7c1.3-1.3,1.3-3.4,0-4.7
			c-1.3-1.3-3.4-1.3-4.7,0l-6,6c0,0,0,0,0,0c-1.8,1.8-1.8,4.8,0,6.6c1.8,1.8,4.8,1.8,6.6,0c0,0,0,0,0,0l0,0l4.1-4.1l-0.9-0.9L9,13.6
			c0,0,0,0,0,0c-1.3,1.3-3.4,1.3-4.7,0C3,12.4,3,10.2,4.3,8.9c0,0,0,0,0,0l0,0l6-6c0.8-0.8,2.1-0.8,2.8,0c0.8,0.8,0.8,2.1,0,2.8
			l-5.7,5.7c-0.3,0.3-0.7,0.3-0.9,0c-0.3-0.3-0.3-0.7,0-0.9L11.2,5.8L11.2,5.8z"/>
	</svg>

	<svg id="icon-contacts" viewBox="0 0 37 37">
		<style type="text/css">
			.st0{fill:#1F76B7;}
		</style>
		<path class="st0" d="M4.8,3.1h1.5c0.4,0,0.8,0.4,0.8,0.8v4.6c0,0.4-0.4,0.8-0.8,0.8H4.8C4.4,9.3,4,8.9,4,8.5V3.9 C4,3.5,4.4,3.1,4.8,3.1z"/>
		<path class="st0" d="M4.8,11.4h1.5c0.4,0,0.8,0.4,0.8,0.8v4.6c0,0.4-0.4,0.8-0.8,0.8H4.8c-0.4,0-0.8-0.4-0.8-0.8v-4.6 C4,11.7,4.4,11.4,4.8,11.4z"/>
		<path class="st0" d="M4.8,19.6h1.5c0.4,0,0.8,0.4,0.8,0.8V25c0,0.4-0.4,0.8-0.8,0.8H4.8C4.4,25.8,4,25.5,4,25v-4.6 C4,20,4.4,19.6,4.8,19.6z"/>
		<path class="st0" d="M4.8,27.9h1.5c0.4,0,0.8,0.4,0.8,0.8v4.6c0,0.4-0.4,0.8-0.8,0.8H4.8c-0.4,0-0.8-0.4-0.8-0.8v-4.6 C4,28.3,4.4,27.9,4.8,27.9z"/>
		<path class="st0" d="M32.2,2H9C8.5,2,8.1,2.3,8.1,2.8v31.4C8.1,34.7,8.5,35,9,35h23.2c0.4,0,0.8-0.4,0.8-0.8V2.8 C33,2.3,32.6,2,32.2,2z M20.5,10.2c2.3,0,4.2,1.9,4.1,4.3c-0.1,2.1-1.8,3.9-4,4c-2.3,0.1-4.3-1.8-4.3-4.1 C16.4,12.1,18.2,10.2,20.5,10.2z M26.7,26.7H14.3v-2.1c0-2.3,1.8-4.1,4.1-4.1h4.1c2.3,0,4.1,1.8,4.1,4.1V26.7z"/>
	</svg>

	<svg id="icon-karaqu" viewBox="0 0 37 37">
		<style type="text/css">
			.st0{fill:#1F76B7;}
		</style>
		<path class="st0" d="M35.1,4.9c-0.7-1.4-2.8-2.4-6.3-3.1C26,1.3,22.4,1,18.6,1c-3.8,0-7.5,0.3-10.4,0.9C6.7,2.1,5.4,2.5,4.3,3
			c-1.2,0.5-2,1.2-2.5,2C1.5,5.7,1.3,6.8,1.5,8.3c0.1,1.2,0.5,2.6,1,4.2c1,3,2.6,6.6,4.6,10.3c1.9,3.5,4,6.7,5.8,9c1,1.3,2,2.3,2.8,3
			c1,0.9,2,1.3,2.8,1.3c1.5,0,3.3-1.4,5.6-4.2c1.8-2.3,3.9-5.4,5.7-8.9c2-3.6,3.6-7.3,4.6-10.3c0.6-1.6,0.9-3.1,1.1-4.3
			C35.7,6.8,35.5,5.7,35.1,4.9z M33.3,10.8c-0.9-0.5-1.8,0-2,0.5c-1.5,5.8-5.9,14.2-10.1,18.7c-0.4,0.7,0,1.7,0.6,2.1
			c-1.3,1.4-2.5,2.2-3.3,2.2c-0.9,0-2-0.9-3.3-2.2c0.4-0.2,1.1-1.1,0.6-2.1c-4.1-4.2-9.3-14.7-10.1-18.7c-0.4-0.7-1.3-0.9-2-0.5
			C3.3,9.5,2.8,7,3.4,6C4.1,5,5.8,4.4,7,4c0,0.8,0.6,1.7,1.4,1.7c5-1.5,15.2-1.6,20.2,0l0,0C29.4,5.7,30,4.8,30,4
			c1.8,0.5,3.1,1.2,3.5,2C34.1,6.9,33.9,8.6,33.3,10.8z"/>
		<path class="st0" d="M10.5,10.2c-1.3,2.3,5.5,14.9,8,14.9c2.6,0,9.2-12.6,8-14.9C25.2,7.9,11.7,7.9,10.5,10.2z"/>
	</svg>

	<svg id="user" viewBox="0 0 147 147">
		<style type="text/css">
			.st0{fill:url(#SVGID_1_);}
		</style>
		<radialGradient id="SVGID_1_" cx="73.5" cy="85.9633" r="64.4556" gradientTransform="matrix(1 0 0 -1 0 147)" gradientUnits="userSpaceOnUse">
			<stop  offset="0" style="stop-color:#CFD4EF"/>
			<stop  offset="1" style="stop-color:#7F849F"/>
		</radialGradient>
		<path class="st0" d="M73.5,3.1C34.6,3.1,3.1,34.6,3.1,73.4c0,17.4,6.3,33.3,16.7,45.5c2.2-2.3,5-4.2,8.7-5.5 c10.6-4.9,15-5.7,20.9-6.6c5.9-0.9,7.3-3.1,8-8.4c0.7-5.3,1.3-6.1,1.3-8.6c-3.5-2.4-4.6-6.8-4.8-9.2c-0.2-2.4-1.1-5-0.9-7.2 c-3.3,0.7-2.9-3.3-3.9-5.6c-0.4-0.8-2.2-6.1-2.6-9s0.6-4.2,2.6-2.9c-1.8-5.7-1.3-10.8-1.7-14.5c-0.4-3.7-2.2-12.8,4.6-14.7 c2.4-0.8,3.9-4.2,8-5.6c4.1-1.4,8.4-4,13.3-4c5,0,9.2,2.6,13.3,4c4.1,1.4,5.6,4.8,8,5.6c6.8,1.8,5,11,4.6,14.7 c-0.4,3.7,0.2,8.8-1.7,14.5c2-1.3,2.9,0,2.6,2.9c-0.4,2.9-2.2,8.1-2.6,9c-1,2.3-0.6,6.3-3.9,5.6c0.2,2.3-0.7,4.9-0.9,7.2 c-0.2,2.4-1.3,6.8-4.8,9.2c0,2.6,0.6,3.3,1.3,8.6c0.7,5.3,2.2,7.5,8,8.4c5.9,0.9,12.3,2.4,20.9,6.6c3.7,1.3,6.5,3.2,8.7,5.5 c10.4-12.3,16.7-28.2,16.7-45.5C143.9,34.6,112.4,3.1,73.5,3.1z"/>
	</svg>

	<svg id="knob" viewBox="0 0 34 1734">
		<filter id="DS_1" x="-40%" y="-40%" width="180%" height="180%">
			<feDropShadow dx="0" dy="0" stdDeviation="1" flood-color="#2688f6" flood-opacity="1" />
		</filter>
		<style type="text/css">
			.st0{fill:none;stroke:#2688f6;stroke-width:2.5;stroke-linecap:round;filter:url(#DS_1);}
			.st1{fill:none;stroke:#a6a6a6;stroke-width:2.75;stroke-linecap:round;}
		</style>
		<path class="st0" d="M7.1,60.9c0.4,0.4,0.7,0.7,1.1,1"/>
		<path class="st0" d="M6.2,94c0.6,0.7,1.2,1.4,2,1.9"/>
		<path class="st0" d="M5.4,126.9c0.8,1.2,1.7,2.2,2.8,3"/>
		<path class="st0" d="M4.7,159.7c0.9,1.6,2.1,3.1,3.5,4.2"/>
		<path class="st0" d="M4.1,192.5c0.9,2.2,2.3,4,4.1,5.5"/>
		<path class="st0" d="M3.6,225.1c0.8,2.7,2.5,5.1,4.6,6.8"/>
		<path class="st0" d="M3.3,257.8c0.7,3.3,2.5,6.1,4.9,8.1"/>
		<path class="st0" d="M3.1,290.5c0.4,3.8,2.4,7.2,5.1,9.4"/>
		<path class="st0" d="M3,323c0,4.4,2.1,8.4,5.2,10.9"/>
		<path class="st0" d="M3.1,355.7c0,0.4-0.1,0.9-0.1,1.3c0,4.4,2.1,8.4,5.2,10.9"/>
		<path class="st0" d="M3.3,388.3C3.1,389.2,3,390.1,3,391c0,4.4,2.1,8.4,5.2,10.9"/>
		<path class="st0" d="M3.6,421c-0.4,1.3-0.6,2.6-0.6,4c0,4.4,2.1,8.4,5.2,10.9"/>
		<path class="st0" d="M4,453.7c-0.7,1.6-1,3.4-1,5.3c0,4.4,2.1,8.4,5.2,10.9"/>
		<path class="st0" d="M4.6,486.5c-1,2-1.6,4.2-1.6,6.5c0,4.4,2.1,8.4,5.2,10.9"/>
		<path class="st0" d="M5.3,519.3C3.9,521.5,3,524.2,3,527c0,4.4,2.1,8.4,5.2,10.9"/>
		<path class="st0" d="M6.3,552.2c-2,2.4-3.2,5.5-3.2,8.8c0,4.4,2.1,8.4,5.2,10.9"/>
		<path class="st0" d="M7.2,585.2c-2.5,2.5-4.1,6-4.1,9.9c0,4.4,2.1,8.4,5.2,10.9"/>
		<path class="st0" d="M8.3,618.2c-3.1,2.6-5.1,6.5-5.1,10.8c0,4.4,2.1,8.4,5.2,10.9"/>
		<path class="st0" d="M9.4,651.4c-3.7,2.5-6.2,6.8-6.2,11.6c0,4.4,2.1,8.4,5.2,10.9"/>
		<path class="st0" d="M10.5,684.7c-4.4,2.4-7.4,7-7.4,12.3c0,4.4,2.1,8.4,5.2,10.9"/>
		<path class="st0" d="M11.8,718.1c-5,2.1-8.6,7.1-8.6,12.9c0,4.4,2.1,8.4,5.2,10.9"/>
		<path class="st0" d="M13.1,751.6c-5.7,1.8-9.9,7.1-9.9,13.4c0,4.4,2.1,8.4,5.2,10.9"/>
		<path class="st0" d="M14.4,785.3c-6.4,1.3-11.2,7-11.2,13.7c0,4.4,2.1,8.4,5.2,10.9"/>
		<path class="st0" d="M15.8,819.1c-7.1,0.7-12.6,6.7-12.6,13.9c0,4.4,2.1,8.4,5.2,10.9"/>
		<path class="st0" d="M17.2,853C17.1,853,17.1,853,17.2,853c-7.7,0-14,6.3-14,14c0,4.4,2.1,8.4,5.2,10.9"/>
		<path class="st0" d="M18.5,887.1c-0.4,0-0.9-0.1-1.4-0.1c-7.7,0-14,6.3-14,14c0,4.4,2.1,8.4,5.2,10.9"/>
		<path class="st0" d="M19.9,921.3c-0.9-0.2-1.8-0.3-2.7-0.3c-7.7,0-14,6.3-14,14c0,4.4,2.1,8.4,5.2,10.9"/>
		<path class="st0" d="M21.2,955.6c-1.3-0.4-2.6-0.6-4.1-0.6c-7.7,0-14,6.3-14,14c0,4.4,2.1,8.4,5.2,10.9"/>
		<path class="st0" d="M22.5,990.1c-1.7-0.7-3.5-1.1-5.3-1.1c-7.7,0-14,6.3-14,14c0,4.4,2.1,8.4,5.2,10.9"/>
		<path class="st0" d="M23.8,1024.7c-2-1.1-4.3-1.7-6.7-1.7c-7.7,0-14,6.3-14,14c0,4.4,2.1,8.4,5.2,10.9"/>
		<path class="st0" d="M24.9,1059.4c-2.2-1.5-4.9-2.4-7.8-2.4c-7.7,0-14,6.3-14,14c0,4.4,2.1,8.4,5.2,10.9"/>
		<path class="st0" d="M25.9,1094.2c-2.4-2-5.5-3.2-8.9-3.2c-7.7,0-14,6.3-14,14c0,4.4,2.1,8.4,5.2,10.9"/>
		<path class="st0" d="M26.9,1129.1c-2.5-2.5-6-4.1-9.9-4.1c-7.7,0-14,6.3-14,14c0,4.4,2.1,8.4,5.2,10.9"/>
		<path class="st0" d="M27.8,1164.2c-2.6-3.1-6.5-5.1-10.8-5.1c-7.7,0-14,6.3-14,14c0,4.4,2.1,8.4,5.2,10.9"/>
		<path class="st0" d="M28.6,1199.2c-2.5-3.8-6.8-6.2-11.6-6.2c-7.7,0-14,6.3-14,14c0,4.4,2.1,8.4,5.2,10.9"/>
		<path class="st0" d="M29.3,1234.4c-2.4-4.4-7-7.4-12.3-7.4c-7.7,0-14,6.3-14,14c0,4.4,2.1,8.4,5.2,10.9"/>
		<path class="st0" d="M30.1,1269.7c-2.1-5.1-7.1-8.7-12.9-8.7c-7.7,0-14,6.3-14,14c0,4.4,2.1,8.4,5.2,10.9"/>
		<path class="st0" d="M30.6,1305c-1.7-5.7-7.1-10-13.4-10c-7.7,0-14,6.3-14,14c0,4.4,2.1,8.4,5.2,10.9"/>
		<path class="st0" d="M30.9,1340.3c-1.3-6.4-7-11.3-13.7-11.3c-7.7,0-14,6.3-14,14c0,4.4,2.1,8.4,5.2,10.9"/>
		<path class="st0" d="M31.1,1375.7c-0.7-7.1-6.7-12.7-13.9-12.7c-7.7,0-14,6.3-14,14c0,4.4,2.1,8.4,5.2,10.9"/>
		<path class="st0" d="M31.2,1411c0-7.7-6.3-14-14-14s-14,6.3-14,14c0,4.4,2.1,8.4,5.2,10.9"/>
		<path class="st0" d="M31.1,1446.4c0-0.5,0.1-0.9,0.1-1.4c0-7.7-6.3-14-14-14s-14,6.3-14,14c0,4.4,2.1,8.4,5.2,10.9"/>
		<path class="st0" d="M30.9,1481.8c0.2-0.9,0.3-1.8,0.3-2.8c0-7.7-6.3-14-14-14s-14,6.3-14,14c0,4.4,2.1,8.4,5.2,10.9"/>
		<path class="st0" d="M30.5,1517.1c0.4-1.3,0.6-2.7,0.6-4.1c0-7.7-6.3-14-14-14s-14,6.3-14,14c0,4.4,2.1,8.4,5.2,10.9"/>
		<path class="st0" d="M30.1,1552.4c0.7-1.7,1.1-3.5,1.1-5.4c0-7.7-6.3-14-14-14s-14,6.3-14,14c0,4.4,2.1,8.4,5.2,10.9"/>
		<path class="st0" d="M29.5,1587.7c1.1-2,1.7-4.3,1.7-6.6c0-7.7-6.3-14-14-14s-14,6.3-14,14c0,4.4,2.1,8.4,5.2,10.9"/>
		<path class="st0" d="M28.8,1622.8c1.5-2.2,2.4-4.9,2.4-7.8c0-7.7-6.3-14-14-14s-14,6.3-14,14c0,4.4,2.1,8.4,5.2,10.9"/>
		<path class="st0" d="M27.9,1657.9c2-2.4,3.2-5.6,3.2-8.9c0-7.7-6.3-14-14-14s-14,6.3-14,14c0,4.4,2.1,8.4,5.2,10.9"/>
		<path class="st0" d="M27,1693c2.5-2.5,4.1-6.1,4.1-10c0-7.7-6.3-14-14-14s-14,6.3-14,14c0,4.4,2.1,8.4,5.2,10.9"/>
		<path class="st0" d="M26,1727.9c3.1-2.5,5.2-6.5,5.2-10.9c0-7.7-6.3-14-14-14s-14,6.3-14,14c0,4.4,2.1,8.4,5.2,10.9"/>
		<path class="st1" d="M25.8,27.9C28.9,25.4,31,21.4,31,17c0-7.7-6.3-14-14-14S3,9.3,3,17c0,4.4,2.1,8.4,5.2,10.9L17,17"/>
		<path class="st1" d="M25.8,61.9c2.8-2.2,4.8-5.6,5.1-9.5c0.8-7.7-4.9-14.6-12.6-15.3S3.8,42,3.1,49.7C2.6,54,4.3,58.2,7.2,61L17,51" />
		<path class="st1" d="M25.8,95.9c2.4-2,4.3-4.8,4.9-8.2c1.5-7.6-3.4-15-11-16.5s-15,3.4-16.5,11c-0.9,4.3,0.4,8.6,3,11.7L17,85"/>
		<path class="st1" d="M25.8,129.9c2.1-1.7,3.8-4,4.6-6.8c2.2-7.4-2-15.2-9.3-17.5c-7.4-2.2-15.2,2-17.5,9.3 c-1.3,4.2-0.4,8.6,1.8,11.9L17,119"/>
		<path class="st1" d="M25.8,163.9c1.8-1.4,3.2-3.3,4.1-5.5c3-7.1-0.4-15.3-7.6-18.3S7,140.5,4.1,147.6c-1.7,4.1-1.3,8.6,0.6,12.1 L17,153"/>
		<path class="st1" d="M25.8,197.9c1.4-1.1,2.6-2.6,3.5-4.3c3.6-6.8,1.1-15.3-5.7-19s-15.3-1.1-19,5.7c-2.1,3.9-2.1,8.4-0.6,12.1 l13-5.4"/>
		<path class="st1" d="M25.8,231.9c1.1-0.9,2-1.9,2.8-3.1c4.3-6.4,2.6-15.1-3.8-19.4s-15.1-2.6-19.4,3.8c-2.5,3.7-2.9,8.1-1.8,11.9 L17,221"/>
		<path class="st1" d="M25.8,265.9c0.7-0.6,1.4-1.2,2-2c4.9-5.9,4-14.8-1.9-19.7s-14.8-4-19.7,1.9c-2.8,3.4-3.7,7.8-2.9,11.7L17,255" />
		<path class="st1" d="M25.8,299.9c0.4-0.3,0.7-0.6,1.1-1c5.5-5.4,5.5-14.3,0-19.8c-5.4-5.5-14.3-5.5-19.8,0 c-3.1,3.1-4.5,7.4-4.1,11.4l14-1.5"/>
		<path class="st1" d="M25.8,334l0.1-0.1c6-4.9,6.9-13.7,2-19.7s-13.7-6.9-19.7-2C4.7,315,3,319.1,3,323.1l14-0.1"/>
		<path class="st1" d="M25.7,367.9c5.5-4.5,6.9-12.6,2.9-18.6c-4.3-6.4-13-8.2-19.4-3.9c-3.7,2.4-5.8,6.4-6.2,10.4l14,1.2"/>
		<path class="st1" d="M25.8,401.9c5.1-4.1,6.8-11.5,3.6-17.5c-3.6-6.8-12.1-9.4-18.9-5.8c-3.9,2.1-6.4,5.8-7.2,9.7L17,391"/>
		<path class="st1" d="M25.8,435.9c4.7-3.8,6.6-10.4,4.2-16.2c-2.9-7.1-11.1-10.6-18.3-7.6c-4.1,1.7-7,5.1-8.1,8.9l13.4,4"/>
		<path class="st1" d="M25.8,469.9c4.3-3.5,6.3-9.3,4.6-14.9c-2.2-7.4-10.1-11.6-17.4-9.4c-4.2,1.3-7.4,4.4-8.9,8.1l13,5.3"/>
		<path class="st1" d="M25.8,503.9c3.9-3.2,6-8.3,5-13.6c-1.5-7.6-8.9-12.5-16.4-11.1c-4.3,0.8-7.8,3.7-9.7,7.2L17,493"/>
		<path class="st1" d="M25.8,537.9c3.5-2.9,5.6-7.4,5.2-12.2c-0.7-7.7-7.6-13.3-15.3-12.6c-4.4,0.4-8.2,2.9-10.4,6.2L17,527"/>
		<path class="st1" d="M25.9,571.9c3.2-2.6,5.2-6.5,5.2-10.8c0-7.7-6.2-14-13.9-14.1c-4.4,0-8.4,2.1-10.9,5.2l10.9,8.8"/>
		<path class="st1" d="M25.9,605.9c2.8-2.3,4.7-5.6,5.1-9.4c0.8-7.7-4.8-14.6-12.5-15.4c-4.4-0.5-8.6,1.2-11.4,4.1l9.9,9.9"/>
		<path class="st1" d="M25.9,639.9c2.5-2,4.3-4.8,4.9-8.1c1.5-7.5-3.4-15-10.9-16.5c-4.3-0.9-8.7,0.4-11.7,2.9l8.9,10.8"/>
		<path class="st1" d="M25.9,673.9c2.1-1.7,3.7-4,4.6-6.8c2.3-7.4-1.9-15.2-9.2-17.5c-4.2-1.3-8.6-0.5-11.9,1.8l7.8,11.6"/>
		<path class="st1" d="M25.9,707.9c1.8-1.4,3.2-3.3,4.1-5.5c3-7.1-0.4-15.3-7.5-18.3c-4.1-1.7-8.6-1.3-12.1,0.6L17,697"/>
		<path class="st1" d="M25.9,742c1.4-1.1,2.6-2.6,3.6-4.3c3.7-6.8,1.1-15.3-5.6-19c-3.9-2.1-8.4-2.2-12.1-0.6l5.4,12.9"/>
		<path class="st1" d="M25.9,775.9c1.1-0.9,2-1.9,2.8-3.1c4.3-6.4,2.6-15.1-3.8-19.4c-3.6-2.5-8.1-3-11.9-1.8l4.1,13.4"/>
		<path class="st1" d="M26,809.9c0.7-0.6,1.4-1.2,2-1.9c4.9-5.9,4.1-14.8-1.8-19.7c-3.4-2.8-7.8-3.8-11.7-3l2.8,13.7"/>
		<path class="st1" d="M25.9,843.9c0.4-0.3,0.7-0.6,1.1-1c5.5-5.4,5.5-14.3,0.1-19.8c-3.1-3.1-7.4-4.5-11.4-4.1l1.4,13.9"/>
		<path class="st1" d="M26,877.9c6-4.8,6.9-13.7,2.1-19.7c-2.8-3.4-6.9-5.2-10.9-5.2v14"/>
		<path class="st1" d="M26,911.9c5.5-4.5,6.9-12.5,2.9-18.6c-2.4-3.7-6.4-5.9-10.3-6.2L17.2,901"/>
		<path class="st1" d="M26,945.9c5.1-4.1,6.7-11.4,3.6-17.4c-2-3.9-5.8-6.5-9.7-7.2L17.2,935"/>
		<path class="st1" d="M26,979.9c4.7-3.8,6.5-10.3,4.2-16.2c-1.7-4.1-5.1-7-8.9-8.1L17.2,969"/>
		<path class="st1" d="M26,1013.9c4.3-3.5,6.3-9.3,4.6-14.9c-1.2-4.2-4.4-7.5-8.1-9l-5.4,12.9"/>
		<path class="st1" d="M26,1047.9c3.9-3.1,6-8.3,5-13.5c-0.8-4.3-3.6-7.9-7.2-9.7l-6.6,12.4"/>
		<path class="st1" d="M26,1081.9c3.5-2.8,5.6-7.3,5.2-12.1c-0.4-4.4-2.8-8.2-6.2-10.4l-7.8,11.6"/>
		<path class="st1" d="M25.8,1115.9c3.1-2.5,5.2-6.4,5.2-10.8s-2-8.4-5.1-10.9L17,1105"/>
		<path class="st1" d="M25.8,1149.9c2.8-2.3,4.7-5.6,5.1-9.4c0.5-4.4-1.2-8.6-4-11.4L17,1139"/>
		<path class="st1" d="M25.8,1183.9c2.5-2,4.3-4.8,5-8.1c0.9-4.3-0.3-8.7-2.9-11.7L17,1173"/>
		<path class="st1" d="M25.8,1217.9c2.1-1.7,3.7-4,4.6-6.7c1.3-4.2,0.5-8.6-1.7-12L17,1207"/>
		<path class="st1" d="M25.8,1251.9c1.7-1.4,3.2-3.2,4.1-5.4c1.7-4,1.4-8.6-0.5-12.1L17,1241"/>
		<path class="st1" d="M26,1285.9c1.4-1.1,2.6-2.5,3.5-4.2c2.1-3.9,2.2-8.4,0.7-12.1l-13,5.3"/>
		<path class="st1" d="M26,1319.9c1-0.8,2-1.8,2.8-3c2.5-3.6,3-8.1,1.9-11.9l-13.4,4"/>
		<path class="st1" d="M26,1353.9c0.7-0.6,1.3-1.2,1.9-1.9c2.8-3.4,3.8-7.8,3-11.7l-13.7,2.7"/>
		<path class="st1" d="M26,1387.9c0.3-0.3,0.7-0.6,1-0.9c3.1-3.1,4.5-7.4,4.1-11.3l-13.9,1.3"/>
		<path class="st1" d="M25.9,1421.9c3.4-2.8,5.2-6.9,5.2-10.9h-14"/>
		<path class="st1" d="M26,1455.9c3-2.4,4.8-5.9,5.1-9.5l-13.9-1.4"/>
		<path class="st1" d="M26,1489.9c2.6-2.1,4.3-5,4.9-8.1l-13.7-2.8"/>
		<path class="st1" d="M26,1523.9c2.2-1.8,3.8-4.2,4.6-6.8l-13.4-4.1"/>
		<path class="st1" d="M26,1557.9c1.8-1.5,3.3-3.4,4.1-5.5l-12.9-5.4"/>
		<path class="st1" d="M26,1591.9c1.5-1.2,2.7-2.6,3.5-4.2l-12.3-6.7"/>
		<path class="st1" d="M26,1625.9c1.1-0.9,2.1-1.9,2.8-3.1l-11.6-7.8"/>
		<path class="st1" d="M26,1659.9c0.7-0.6,1.4-1.2,2-2l-10.8-8.9"/>
		<path class="st1" d="M26,1693.9c0.4-0.3,0.7-0.6,1.1-0.9l-9.9-10"/>
		<path class="st1" d="M26,1727.9l-8.8-10.9"/>
	</svg>
</svg>