<svg xmlns="http://www.w3.org/2000/svg" width="0" height="0">

	<svg id="icon-search" viewBox="0 0 500 500">
		<path fill="#cce" d="M332.4,217c0-63.6-51.8-115.4-115.4-115.4S101.6,153.4,101.6,217S153.4,332.4,217,332.4S332.4,280.7,332.4,217
			L332.4,217z M464.3,431.4c0,18-14.9,33-33,33c-8.8,0-17.3-3.6-23.2-9.8l-88.4-88.1c-30.1,20.9-66.2,31.9-102.8,31.9
			c-100.2,0-181.4-81.2-181.4-181.4S116.8,35.7,217,35.7S398.4,116.8,398.4,217c0,36.6-11.1,72.7-31.9,102.8l88.4,88.4
			C460.7,414.1,464.3,422.6,464.3,431.4L464.3,431.4z"/>
	</svg>

	<svg id="icon-clock" viewBox="0 0 500 500">
		<path fill="#cce" d="M312.2,350.6l-89.3-89.3V141.5h54.2v97.3l73.4,73.4L312.2,350.6z M250,33C130.2,33,33,130.2,33,250s97.1,217,217,217
			s217-97.1,217-217S369.8,33,250,33z M250,412.7c-89.9,0-162.7-72.9-162.7-162.7S160.1,87.3,250,87.3S412.7,160.1,412.7,250
			S339.9,412.7,250,412.7z"/>
	</svg>

	<svg id="icon-date" viewBox="0 0 500 500">
		<path fill="#cce" d="M181.6,195.3h54.7V250h-54.7V195.3z M263.7,195.3h54.7V250h-54.7V195.3z M345.7,195.3h54.7V250h-54.7V195.3z M99.6,359.4
			h54.7v54.7H99.6V359.4z M181.6,359.4h54.7v54.7h-54.7V359.4z M263.7,359.4h54.7v54.7h-54.7V359.4z M181.6,277.3h54.7V332h-54.7
			V277.3z M263.7,277.3h54.7V332h-54.7V277.3z M345.7,277.3h54.7V332h-54.7V277.3z M99.6,277.3h54.7V332H99.6V277.3z M400.4,31.2v27.3
			h-54.7V31.2H154.3v27.3H99.6V31.2H44.9v437.5h410.2V31.2H400.4z M427.8,441.4H72.2V140.6h355.5V441.4z"/>
	</svg>

	<svg id="icon-info" viewBox="0 0 500 500">
		<path d="M221.1,156c0-11.9,9.8-21.7,21.7-21.7h14.5c11.9,0,21.7,9.8,21.7,21.7v14.5c0,11.9-9.8,21.7-21.7,21.7h-14.5 c-11.9,0-21.7-9.8-21.7-21.7V156z"/>
		<path d="M307.8,365.7H192.2v-28.9h28.9V250h-28.9v-28.9h86.7v115.7h28.9V365.7z"/>
		<path d="M250,18.7C122.2,18.7,18.7,122.2,18.7,250S122.2,481.3,250,481.3S481.3,377.8,481.3,250S377.8,18.7,250,18.7z M250,437.9 c-103.8,0-187.9-84.1-187.9-187.9S146.2,62.1,250,62.1S437.9,146.2,437.9,250S353.8,437.9,250,437.9z"/>
	</svg>

	<svg id="icon-phone" viewBox="0 0 500 500">
		<path d="M359.2,296.8C328,328,328,359.2,296.8,359.2s-62.4-31.2-93.6-62.4s-62.4-62.4-62.4-93.6s31.2-31.2,62.4-62.4 S140.8,16,109.6,16S16,109.6,16,109.6c0,62.4,64.1,188.9,124.8,249.6S328,484,390.4,484c0,0,93.6-62.4,93.6-93.6 S390.4,265.6,359.2,296.8z"/>
	</svg>

	<svg id="icon-arrow-right" viewBox="0 0 500 500">
		<path d="M194.3,436.1l-163-163c-12.7-12.7-12.7-33.4,0-46.1l163-163c12.7-12.7,33.4-12.7,46.1,0c12.7,12.7,12.7,33.4,0,46.1 L133.1,217.4h312.6c18,0,32.6,14.6,32.6,32.6s-14.6,32.6-32.6,32.6H133.1L240.4,390c6.4,6.4,9.6,14.7,9.6,23.1 c0,8.3-3.2,16.7-9.6,23.1C227.7,448.8,207.1,448.8,194.3,436.1z"/>
	</svg>

	<svg id="icon-arrow-left" viewBox="0 0 500 500">
		<path d="M305.7,63.9l163,163c12.7,12.7,12.7,33.4,0,46.1l-163,163c-12.7,12.7-33.4,12.7-46.1,0c-12.7-12.7-12.7-33.4,0-46.1 l107.4-107.4H54.3c-18,0-32.6-14.6-32.6-32.6s14.6-32.6,32.6-32.6h312.6L259.6,110c-6.4-6.4-9.6-14.7-9.6-23.1s3.2-16.7,9.6-23.1 C272.3,51.2,292.9,51.2,305.7,63.9z"/>
	</svg>

	<svg id="icon-users" viewBox="0 0 500 500">
		<path d="M328.9,356.2v-21.7c29-16.3,52.6-57,52.6-97.7c0-65.3,0-118.3-78.9-118.3s-78.9,53-78.9,118.3c0,40.7,23.6,81.4,52.6,97.7 v21.7c-89.2,7.3-157.7,51.1-157.7,104.1h368.1C486.6,407.3,418,363.5,328.9,356.2z"/>
		<path d="M147.8,366.4c22.7-14.8,51-26.1,82.1-33c-6.2-7.3-11.8-15.5-16.6-24.2c-12.5-22.7-19.1-47.7-19.1-72.3 c0-35.3,0-68.7,12.6-96c12.2-26.5,34.1-42.9,65.4-49.1c-6.9-31.4-25.4-52.1-74.7-52.1c-78.9,0-78.9,53-78.9,118.3 c0,40.7,23.6,81.4,52.6,97.7v21.7C82,284.7,13.4,328.5,13.4,381.4H128C134,376.1,140.6,371.1,147.8,366.4L147.8,366.4z"/>
	</svg>

	<svg id="icon-user" viewBox="0 0 500 500">
		<path d="M282,331.3v-26.4c35.2-19.9,64-69.4,64-118.9c0-79.5,0-144-96-144s-96,64.5-96,144c0,49.5,28.8,99.1,64,118.9v26.4 C109.4,340.2,26,393.5,26,458h448C474,393.5,390.6,340.2,282,331.3L282,331.3z"/>
	</svg>

	<svg id="icon-add-user" viewBox="0 0 500 500">
		<path d="M193.2,349.5c0-67.2,42.6-124.6,102.1-146.6c7.2-16.2,11.5-34.3,11.5-52.3c0-70.6,0-127.9-85.3-127.9s-85.3,57.3-85.3,127.9 c0,44,25.5,88,56.8,105.6v23.4c-96.4,7.9-170.5,55.3-170.5,112.5h176.4C195.2,378.5,193.2,364.2,193.2,349.5L193.2,349.5z"/>
		<path d="M349.5,221.6c-70.6,0-127.9,57.3-127.9,127.9s57.3,127.9,127.9,127.9c70.6,0,127.9-57.3,127.9-127.9 S420.1,221.6,349.5,221.6z M420.5,363.7h-56.8v56.8h-28.4v-56.8h-56.8v-28.4h56.8v-56.8h28.4v56.8h56.8V363.7z"/>
	</svg>

	<svg id="icon-remove-user" viewBox="0 0 500 500">
		<path d="M193.2,349.5c0-67.2,42.6-124.6,102.1-146.6c7.2-16.2,11.5-34.3,11.5-52.3c0-70.6,0-127.9-85.3-127.9s-85.3,57.3-85.3,127.9 c0,44,25.5,88,56.8,105.6v23.4c-96.4,7.9-170.5,55.3-170.5,112.5h176.4C195.2,378.5,193.2,364.2,193.2,349.5L193.2,349.5z"/>
		<path d="M349.5,221.6c-70.6,0-127.9,57.3-127.9,127.9s57.3,127.9,127.9,127.9c70.6,0,127.9-57.3,127.9-127.9 S420.1,221.6,349.5,221.6z M420.5,363.7H278.4v-28.4h142.1V363.7z"/>
	</svg>

	<svg id="icon-return" viewBox="0 0 500 500">
		<path d="M394.2,101.5v172.1l-222.9-0.3v-68.3L49.5,302.5l121.8,96.1v-69l251,0.4c0,0,0,0,0,0c7.5,0,14.6-3,19.9-8.2 c5.3-5.3,8.3-12.4,8.3-19.9V101.5H394.2z"/>
	</svg>

	<svg id="icon-chevron-left" viewBox="0 0 500 500">
		<style type="text/css">
			.st0{fill:none;stroke:#fff;stroke-width:80;stroke-linecap:round;stroke-linejoin:round;}
		</style>
		<polyline class="st0" points="160.8,71.6 339.2,250 160.8,428.4 "/>
	</svg>

	<svg id="icon-offline" viewBox="0 0 500 500">
		<style type="text/css">
			.st0{fill:none;stroke:#fff;stroke-width:80;stroke-linecap:round;}
		</style>
		<circle class="st0" cx="250" cy="250" r="180"/>
	</svg>

	<svg id="icon-online" viewBox="0 0 500 500">
		<style type="text/css">
			.st0{fill:#fff;stroke:#fff;stroke-width:80;stroke-linecap:round;}
		</style>
		<circle class="st0" cx="250" cy="250" r="180"/>
	</svg>

	<svg id="icon-threads" viewBox="0 0 500 500">
		<style type="text/css">
			.st0{fill:#fff;}
		</style>
		<path class="st0" d="M445.8,398.9c0,17.4,10,32.5,24.5,39.8v6.1c-4.1,0.6-8.2,0.9-12.4,0.9c-26,0-49.5-10.9-66.1-28.4c-10,2.7-20.7,4.1-31.7,4.1
			c-60.8,0-110.1-43.8-110.1-97.9s49.3-97.9,110.1-97.9s110.1,43.8,110.1,97.9c0,21.2-7.6,40.8-20.4,56.8
			C447.3,386,445.8,392.3,445.8,398.9L445.8,398.9z M225.5,54.3c106.5,0,193.1,69.1,195.8,155.1c-18.8-8.4-39.6-12.8-61.1-12.8
			c-36.5,0-71.1,12.8-97.2,36c-27.1,24.1-42,56.4-42,91c0,17.1,3.7,33.6,10.6,48.9c-2,0-4,0.1-6,0.1c-10.4,0-20.6-0.7-30.5-1.9
			c-42.1,42.1-92.3,49.6-140.8,50.7V411c26.2-12.8,49-36.2,49-63c0-3.7-0.3-7.4-0.8-11C58,307.9,29.7,263.3,29.7,213.4
			C29.7,125.5,117.4,54.3,225.5,54.3L225.5,54.3z"/>
	</svg>

	<svg id="icon-thread" viewBox="0 0 500 500">
		<style type="text/css">
			.st0{fill:#fff;}
		</style>
		<path class="st0" d="M274.2,282.5l16.3-65.1h-64.6l-16.3,65.1H274.2z M469.4,154.4l-14.2,57c-1,3.6-4.1,6.1-7.9,6.1h-83.1l-16.3,65.1H427
			c2.5,0,4.8,1.3,6.4,3.1c1.5,2,2.3,4.6,1.5,7.1l-14.2,57c-0.8,3.6-4.1,6.1-7.9,6.1h-83.1L309,439.2c-1,3.6-4.3,6.1-7.9,6.1h-57
			c-2.5,0-5.1-1.3-6.6-3.1c-1.5-2-2-4.6-1.5-7.1l19.8-79.3h-64.6l-20.6,83.4c-1,3.6-4.3,6.1-7.9,6.1h-57.2c-2.3,0-4.8-1.3-6.4-3.1
			c-1.5-2-2-4.6-1.5-7.1l19.8-79.3H38.4c-2.5,0-4.8-1.3-6.4-3.1c-1.5-2-2-4.6-1.5-7.1l14.2-57c1-3.6,4.1-6.1,7.9-6.1h83.1l16.3-65.1
			H73c-2.5,0-4.8-1.3-6.4-3.1c-1.5-2-2.3-4.6-1.5-7.1l14.2-57c0.8-3.6,4.1-6.1,7.9-6.1h83.1L191,60.8c1-3.6,4.3-6.1,8.1-6.1h57
			c2.3,0,4.8,1.3,6.4,3.1c1.5,2,2,4.6,1.5,7.1l-19.8,79.3h64.6l20.6-83.4c1-3.6,4.3-6.1,8.1-6.1h57c2.3,0,4.8,1.3,6.4,3.1
			c1.5,2,2,4.6,1.5,7.1l-19.8,79.3h79.1c2.5,0,4.8,1.3,6.4,3.1C469.4,149.3,470,151.8,469.4,154.4z"/>
	</svg>

	<svg id="icon-plus" viewBox="0 0 500 500">
		<style type="text/css">
			.st0{fill:none;stroke:#fff;stroke-width:80;stroke-linecap:round;}
		</style>
		<line class="st0" x1="250" y1="44" x2="250" y2="466"/>
		<line class="st0" x1="456" y1="251" x2="43" y2="251"/>
	</svg>

</svg>