<svg xmlns="http://www.w3.org/2000/svg" width="0" height="0">

	<svg id="icon-search" viewBox="0 0 500 500">
		<path fill="#333" d="M332.4,217c0-63.6-51.8-115.4-115.4-115.4S101.6,153.4,101.6,217S153.4,332.4,217,332.4S332.4,280.7,332.4,217
			L332.4,217z M464.3,431.4c0,18-14.9,33-33,33c-8.8,0-17.3-3.6-23.2-9.8l-88.4-88.1c-30.1,20.9-66.2,31.9-102.8,31.9
			c-100.2,0-181.4-81.2-181.4-181.4S116.8,35.7,217,35.7S398.4,116.8,398.4,217c0,36.6-11.1,72.7-31.9,102.8l88.4,88.4
			C460.7,414.1,464.3,422.6,464.3,431.4L464.3,431.4z"/>
	</svg>

	<svg id="icon-clock" viewBox="0 0 500 500">
		<path fill="#333" d="M312.2,350.6l-89.3-89.3V141.5h54.2v97.3l73.4,73.4L312.2,350.6z M250,33C130.2,33,33,130.2,33,250s97.1,217,217,217
			s217-97.1,217-217S369.8,33,250,33z M250,412.7c-89.9,0-162.7-72.9-162.7-162.7S160.1,87.3,250,87.3S412.7,160.1,412.7,250
			S339.9,412.7,250,412.7z"/>
	</svg>

	<svg id="icon-date" viewBox="0 0 500 500">
		<path fill="#333" d="M181.6,195.3h54.7V250h-54.7V195.3z M263.7,195.3h54.7V250h-54.7V195.3z M345.7,195.3h54.7V250h-54.7V195.3z M99.6,359.4
			h54.7v54.7H99.6V359.4z M181.6,359.4h54.7v54.7h-54.7V359.4z M263.7,359.4h54.7v54.7h-54.7V359.4z M181.6,277.3h54.7V332h-54.7
			V277.3z M263.7,277.3h54.7V332h-54.7V277.3z M345.7,277.3h54.7V332h-54.7V277.3z M99.6,277.3h54.7V332H99.6V277.3z M400.4,31.2v27.3
			h-54.7V31.2H154.3v27.3H99.6V31.2H44.9v437.5h410.2V31.2H400.4z M427.8,441.4H72.2V140.6h355.5V441.4z"/>
	</svg>

</svg>