<svg xmlns="http://www.w3.org/2000/svg" width="0" height="0">

	<svg id="icon-search" viewBox="0 0 500 500">
		<path fill="#333" d="M332.4,217c0-63.6-51.8-115.4-115.4-115.4S101.6,153.4,101.6,217S153.4,332.4,217,332.4S332.4,280.7,332.4,217
			L332.4,217z M464.3,431.4c0,18-14.9,33-33,33c-8.8,0-17.3-3.6-23.2-9.8l-88.4-88.1c-30.1,20.9-66.2,31.9-102.8,31.9
			c-100.2,0-181.4-81.2-181.4-181.4S116.8,35.7,217,35.7S398.4,116.8,398.4,217c0,36.6-11.1,72.7-31.9,102.8l88.4,88.4
			C460.7,414.1,464.3,422.6,464.3,431.4L464.3,431.4z"/>
	</svg>

</svg>