<svg xmlns="http://www.w3.org/2000/svg" width="0" height="0">

	<svg id="icon-previous" viewBox="0 0 13 13">
		<style type="text/css">
			.st0{fill:#333;}
		</style>
		<polygon class="st0" points="9.2,1.6 8.5,0.8 3.5,5.8 3.5,5.8 2.8,6.5 3.5,7.2 8.5,12.2 9.2,11.4 4.2,6.5 "/>
	</svg>

	<svg id="icon-next" viewBox="0 0 13 13">
		<style type="text/css">
			.st0{fill:#333;}
		</style>
		<polygon class="st0" points="2.8,11.4 3.5,12.2 8.5,7.2 8.5,7.2 9.2,6.5 8.5,5.8 3.5,0.8 2.8,1.6 7.8,6.5 "/>
	</svg>

	<svg id="icon-search" viewBox="0 0 13 13">
		<path fill="#cce" d="M8.4,5.7C8.4,4.2,7.2,3,5.7,3S3,4.2,3,5.7s1.2,2.7,2.7,2.7S8.4,7.2,8.4,5.7L8.4,5.7z M11.5,10.8 c0,0.4-0.4,0.8-0.8,0.8c-0.2,0-0.4-0.1-0.5-0.2L8.1,9.2C7.4,9.7,6.6,10,5.7,10c-2.4,0-4.3-1.9-4.3-4.3s1.9-4.3,4.3-4.3 S10,3.4,10,5.7c0,0.9-0.3,1.7-0.7,2.4l2.1,2.1C11.5,10.4,11.5,10.6,11.5,10.8L11.5,10.8z"/>
	</svg>

	<svg id="icon-clock" viewBox="0 0 13 13">
		<path fill="#cce" d="M8,8.9L5.9,6.8V3.9h1.3v2.3L8.9,8L8,8.9z M6.5,1.4c-2.8,0-5.1,2.3-5.1,5.1s2.3,5.1,5.1,5.1s5.1-2.3,5.1-5.1 S9.3,1.4,6.5,1.4z M6.5,10.3c-2.1,0-3.8-1.7-3.8-3.8s1.7-3.8,3.8-3.8s3.8,1.7,3.8,3.8S8.6,10.3,6.5,10.3z"/>
	</svg>

	<svg id="icon-date" viewBox="0 0 13 13">
		<path fill="#cce" d="M4.9,5.2h1.3v1.3H4.9V5.2z M6.8,5.2h1.3v1.3H6.8V5.2z M8.7,5.2H10v1.3H8.7V5.2z M3,9.1h1.3v1.3H3V9.1z  M4.9,9.1h1.3v1.3H4.9V9.1z M6.8,9.1h1.3v1.3H6.8V9.1z M4.9,7.1h1.3v1.3H4.9V7.1z M6.8,7.1h1.3v1.3H6.8V7.1z M8.7,7.1H10v1.3H8.7 V7.1z M3,7.1h1.3v1.3H3V7.1z M10,1.4V2H8.7V1.4H4.2V2H3V1.4H1.7v10.3h9.6V1.4H10z M10.7,11H2.3V3.9h8.4L10.7,11L10.7,11z"/>
	</svg>

	<svg id="icon-info" viewBox="0 0 13 13">
		<path fill="#333" d="M5.7,3.9c0-0.4,0.2-0.6,0.6-0.6h0.4c0.5,0,0.7,0.2,0.7,0.6v0.4c0,0.4-0.2,0.6-0.6,0.6H6.3c-0.4,0-0.6-0.2-0.6-0.6V3.9 L5.7,3.9z"/>
		<path fill="#333" d="M8.2,9.8H4.8V8.9h0.8V6.5H4.8V5.7h2.4v3.2h0.8v0.8H8.2z"/>
		<path fill="#333" d="M6.5,0C2.9,0,0,2.9,0,6.5S2.9,13,6.5,13S13,10.1,13,6.5S10.1,0,6.5,0z M6.5,11.8c-2.9,0-5.3-2.4-5.3-5.3s2.4-5.3,5.3-5.3 s5.3,2.4,5.3,5.3S9.4,11.8,6.5,11.8z"/>
	</svg>

	<svg id="icon-camera" viewBox="0 0 13 13">
		<path d="M11.5,3c0,0-0.1,0-0.1,0c-0.1,0-0.2,0-0.3,0.1L8.8,5.4v-1V3.8c0-0.6-0.5-1-1-1H7.1H2.9H2.3c-0.6,0-1,0.5-1,1v0.7v4.1v0.7 c0,0.6,0.5,1,1,1h0.7h4.1h0.7c0.6,0,1-0.5,1-1V8.6v-1l2.4,2.4c0.1,0.1,0.2,0.1,0.3,0.1c0,0,0.1,0,0.1,0c0.1-0.1,0.2-0.2,0.2-0.3 V3.3C11.8,3.1,11.7,3,11.5,3z"/>
	</svg>

	<svg id="icon-phone" viewBox="0 0 13 13">
		<path d="M9.1,7.6C8.3,8.3,8.3,9.1,7.6,9.1S6.1,8.3,5.4,7.6S3.9,6.1,3.9,5.4s0.7-0.7,1.5-1.5S3.9,1,3.2,1S1,3.2,1,3.2 c0,1.5,1.5,4.4,2.9,5.9S8.3,12,9.8,12c0,0,2.2-1.5,2.2-2.2C12,9.1,9.8,6.9,9.1,7.6z"/>
	</svg>

	<svg id="icon-arrow-right" viewBox="0 0 13 13">
		<path d="M5.2,10.9L1.4,7C1.1,6.7,1.1,6.3,1.4,6l3.8-3.8c0.3-0.3,0.8-0.3,1.1,0c0.3,0.3,0.3,0.8,0,1.1L3.8,5.7h7.3 c0.4,0,0.8,0.3,0.8,0.8s-0.3,0.8-0.8,0.8H3.8l2.5,2.5c0.2,0.2,0.2,0.3,0.2,0.5c0,0.2-0.1,0.4-0.2,0.5C6,11.2,5.5,11.2,5.2,10.9z"/>
	</svg>

	<svg id="icon-arrow-left" viewBox="0 0 13 13">
		<path d="M7.8,2.1L11.6,6c0.3,0.3,0.3,0.8,0,1.1l-3.8,3.8c-0.3,0.3-0.8,0.3-1.1,0c-0.3-0.3-0.3-0.8,0-1.1l2.5-2.5H1.9 c-0.4,0-0.8-0.3-0.8-0.8c0-0.4,0.3-0.8,0.8-0.8h7.3L6.7,3.2C6.6,3.1,6.5,2.9,6.5,2.7s0.1-0.4,0.2-0.5C7,1.8,7.5,1.8,7.8,2.1z"/>
	</svg>

	<svg id="icon-users" viewBox="0 0 13 13">
		<path d="M8.4,9V8.5C9,8.1,9.6,7.1,9.6,6.2c0-1.5,0-2.8-1.9-2.8S5.9,4.7,5.9,6.2c0,1,0.6,1.9,1.2,2.3V9C5,9.2,3.4,10.2,3.4,11.4h8.7 C12.1,10.2,10.4,9.2,8.4,9z"/>
		<path d="M4.1,9.2C4.6,8.9,5.3,8.6,6,8.5C5.9,8.3,5.7,8.1,5.6,7.9C5.3,7.4,5.2,6.8,5.2,6.2c0-0.8,0-1.6,0.3-2.3 c0.3-0.6,0.8-1,1.5-1.2C6.9,2,6.4,1.6,5.3,1.6c-1.9,0-1.9,1.2-1.9,2.8c0,1,0.6,1.9,1.2,2.3v0.5C2.5,7.3,0.9,8.3,0.9,9.6h2.7 C3.8,9.5,3.9,9.3,4.1,9.2L4.1,9.2z"/>
	</svg>

	<svg id="icon-user" viewBox="0 0 13 13">
		<path d="M7.3,8.4V7.8C8.1,7.3,8.8,6.2,8.8,5c0-1.9,0-3.4-2.3-3.4S4.2,3.1,4.2,5c0,1.2,0.7,2.3,1.5,2.8v0.6c-2.6,0.2-4.5,1.5-4.5,3 h10.5C11.8,9.9,9.8,8.6,7.3,8.4L7.3,8.4z"/>
	</svg>

	<svg id="icon-add-user" viewBox="0 0 13 13">
		<path d="M5.2,8.8c0-1.6,1-2.9,2.4-3.4C7.7,5,7.8,4.6,7.8,4.2c0-1.7,0-3-2-3s-2,1.3-2,3c0,1,0.6,2.1,1.3,2.5v0.6 c-2.3,0.2-4,1.3-4,2.6h4.1C5.2,9.5,5.2,9.2,5.2,8.8L5.2,8.8z"/>
		<path d="M8.8,5.8c-1.7,0-3,1.3-3,3s1.3,3,3,3s3-1.3,3-3S10.5,5.8,8.8,5.8z M10.5,9.2H9.2v1.3H8.5V9.2H7.2V8.5h1.3V7.2h0.7v1.3h1.3 V9.2z"/>
	</svg>

	<svg id="icon-remove-user" viewBox="0 0 13 13">
		<path d="M5.2,8.8c0-1.6,1-2.9,2.4-3.4C7.7,5,7.8,4.6,7.8,4.2c0-1.7,0-3-2-3s-2,1.3-2,3c0,1,0.6,2.1,1.3,2.5v0.6 c-2.3,0.2-4,1.3-4,2.6h4.1C5.2,9.5,5.2,9.2,5.2,8.8L5.2,8.8z"/>
		<path d="M8.8,5.8c-1.7,0-3,1.3-3,3s1.3,3,3,3s3-1.3,3-3S10.5,5.8,8.8,5.8z M10.5,9.2H7.2V8.5h3.3V9.2z"/>
	</svg>

	<svg id="icon-return" viewBox="0 0 13 13">
		<path d="M9.9,3v4L4.6,7V5.4L1.8,7.7L4.6,10V8.4l5.9,0l0,0c0.2,0,0.3-0.1,0.5-0.2c0.1-0.1,0.2-0.3,0.2-0.5V3H9.9z"/>
	</svg>

	<svg id="icon-chevron-left" viewBox="0 0 13 13">
		<style type="text/css">
			.st0{fill:none;stroke:#fff;stroke-width:1.75;stroke-linecap:round;stroke-linejoin:round;}
		</style>
		<polyline class="st0" points="4.8,3.1 8.2,6.5 4.8,9.9 "/>
	</svg>

	<svg id="icon-offline" viewBox="0 0 13 13">
		<style type="text/css">
			.st0{fill:none;stroke:#fff;stroke-width:2;stroke-linecap:round;stroke-linejoin:round;}
		</style>
		<circle class="st0" cx="6.5" cy="6.5" r="4.25"/>
	</svg>

	<svg id="icon-online" viewBox="0 0 13 13">
		<style type="text/css">
			.st0{fill:#4a4;stroke:#4a4;stroke-width:2;stroke-linecap:round;stroke-linejoin:round;}
		</style>
		<circle class="st0" cx="6.5" cy="6.5" r="4.25"/>
	</svg>

	<svg id="icon-threads" viewBox="0 0 13 13">
		<style type="text/css">
			.st0{fill:#fff;}
		</style>
		<path class="st0" d="M11.4,10.2c0,0.4,0.2,0.8,0.6,1v0.2c-0.1,0-0.2,0-0.3,0c-0.6,0-1.2-0.3-1.7-0.7c-0.2,0.1-0.5,0.1-0.8,0.1 c-1.5,0-2.7-1.1-2.7-2.4s1.2-2.4,2.7-2.4S12,7,12,8.3c0,0.5-0.2,1-0.5,1.4C11.4,9.9,11.4,10.1,11.4,10.2L11.4,10.2z M5.9,1.6 c2.7,0,4.8,1.7,4.9,3.9c-0.5-0.2-1-0.3-1.5-0.3c-0.9,0-1.8,0.3-2.4,0.9c-0.7,0.6-1,1.4-1,2.3c0,0.4,0.1,0.8,0.3,1.2c0,0-0.1,0-0.1,0 c-0.3,0-0.5,0-0.8,0c-1.1,1.1-2.3,1.2-3.5,1.3v-0.3c0.7-0.3,1.2-0.9,1.2-1.6c0-0.1,0-0.2,0-0.3C1.7,7.9,1,6.8,1,5.6 C1,3.4,3.2,1.6,5.9,1.6L5.9,1.6z"/>
	</svg>

	<svg id="icon-thread" viewBox="0 0 13 13">
		<style type="text/css">
			.st0{fill:#fff;}
		</style>
		<path class="st0" d="M7.1,7.3l0.4-1.6H5.9L5.5,7.3H7.1z M12,4.1l-0.4,1.4c0,0.1-0.1,0.2-0.2,0.2H9.4L8.9,7.3h2c0.1,0,0.1,0,0.2,0.1 c0,0,0.1,0.1,0,0.2L10.8,9c0,0.1-0.1,0.2-0.2,0.2H8.5L8,11.2c0,0.1-0.1,0.2-0.2,0.2H6.4c-0.1,0-0.1,0-0.2-0.1c0,0,0-0.1,0-0.2l0.5-2 H5l-0.5,2.1c0,0.1-0.1,0.2-0.2,0.2H2.9c-0.1,0-0.1,0-0.2-0.1c0,0,0-0.1,0-0.2l0.5-2h-2c-0.1,0-0.1,0-0.2-0.1c0,0,0-0.1,0-0.2 l0.4-1.4c0-0.1,0.1-0.2,0.2-0.2h2.1l0.4-1.6h-2C2,5.7,2,5.7,1.9,5.6c0,0-0.1-0.1,0-0.2L2.2,4c0-0.1,0.1-0.2,0.2-0.2h2.1L5,1.8 c0-0.1,0.1-0.2,0.2-0.2h1.4c0.1,0,0.1,0,0.2,0.1c0,0,0,0.1,0,0.2l-0.5,2H8l0.5-2.1c0-0.1,0.1-0.2,0.2-0.2h1.4c0.1,0,0.1,0,0.2,0.1 c0,0,0,0.1,0,0.2l-0.5,2h2c0.1,0,0.1,0,0.2,0.1C12,4,12,4,12,4.1z"/>
	</svg>

	<svg id="icon-plus" viewBox="0 0 13 13">
		<style type="text/css">
			.st0{fill:#fff;}
		</style>
		<rect class="st0" x="5" y="1" width="2" height="10"/>
		<rect class="st0" x="1" y="5" width="10" height="2"/>
	</svg>

	<svg id="icon-warning" viewBox="0 0 15 15">
		<path fill="#333" d="M13.4,11.1L8.6,2.8C8.3,2.3,7.9,2,7.5,2S6.7,2.3,6.4,2.8l-4.8,8.3C1,12.1,1.5,13,2.7,13h9.6
			C13.5,13,14,12.1,13.4,11.1z M6.9,6.2h1.2v2.9H6.9L6.9,6.2L6.9,6.2z M7.5,11c-0.4,0-0.7-0.3-0.7-0.7c0-0.4,0.3-0.7,0.7-0.7
			s0.7,0.3,0.7,0.7l0,0C8.2,10.7,7.9,11,7.5,11L7.5,11L7.5,11z"/>
	</svg>

	<svg id="icon-contacts" viewBox="0 0 37 37">
		<style type="text/css">
			.st0{fill:#1F76B7;}
		</style>
		<path class="st0" d="M4.8,3.1h1.5c0.4,0,0.8,0.4,0.8,0.8v4.6c0,0.4-0.4,0.8-0.8,0.8H4.8C4.4,9.3,4,8.9,4,8.5V3.9 C4,3.5,4.4,3.1,4.8,3.1z"/>
		<path class="st0" d="M4.8,11.4h1.5c0.4,0,0.8,0.4,0.8,0.8v4.6c0,0.4-0.4,0.8-0.8,0.8H4.8c-0.4,0-0.8-0.4-0.8-0.8v-4.6 C4,11.7,4.4,11.4,4.8,11.4z"/>
		<path class="st0" d="M4.8,19.6h1.5c0.4,0,0.8,0.4,0.8,0.8V25c0,0.4-0.4,0.8-0.8,0.8H4.8C4.4,25.8,4,25.5,4,25v-4.6 C4,20,4.4,19.6,4.8,19.6z"/>
		<path class="st0" d="M4.8,27.9h1.5c0.4,0,0.8,0.4,0.8,0.8v4.6c0,0.4-0.4,0.8-0.8,0.8H4.8c-0.4,0-0.8-0.4-0.8-0.8v-4.6 C4,28.3,4.4,27.9,4.8,27.9z"/>
		<path class="st0" d="M32.2,2H9C8.5,2,8.1,2.3,8.1,2.8v31.4C8.1,34.7,8.5,35,9,35h23.2c0.4,0,0.8-0.4,0.8-0.8V2.8 C33,2.3,32.6,2,32.2,2z M20.5,10.2c2.3,0,4.2,1.9,4.1,4.3c-0.1,2.1-1.8,3.9-4,4c-2.3,0.1-4.3-1.8-4.3-4.1 C16.4,12.1,18.2,10.2,20.5,10.2z M26.7,26.7H14.3v-2.1c0-2.3,1.8-4.1,4.1-4.1h4.1c2.3,0,4.1,1.8,4.1,4.1V26.7z"/>
	</svg>

	<svg id="icon-karaqu" viewBox="0 0 37 37">
		<style type="text/css">
			.st0{fill:#1F76B7;}
		</style>
		<path class="st0" d="M35.1,4.9c-0.7-1.4-2.8-2.4-6.3-3.1C26,1.3,22.4,1,18.6,1c-3.8,0-7.5,0.3-10.4,0.9C6.7,2.1,5.4,2.5,4.3,3
			c-1.2,0.5-2,1.2-2.5,2C1.5,5.7,1.3,6.8,1.5,8.3c0.1,1.2,0.5,2.6,1,4.2c1,3,2.6,6.6,4.6,10.3c1.9,3.5,4,6.7,5.8,9c1,1.3,2,2.3,2.8,3
			c1,0.9,2,1.3,2.8,1.3c1.5,0,3.3-1.4,5.6-4.2c1.8-2.3,3.9-5.4,5.7-8.9c2-3.6,3.6-7.3,4.6-10.3c0.6-1.6,0.9-3.1,1.1-4.3
			C35.7,6.8,35.5,5.7,35.1,4.9z M33.3,10.8c-0.9-0.5-1.8,0-2,0.5c-1.5,5.8-5.9,14.2-10.1,18.7c-0.4,0.7,0,1.7,0.6,2.1
			c-1.3,1.4-2.5,2.2-3.3,2.2c-0.9,0-2-0.9-3.3-2.2c0.4-0.2,1.1-1.1,0.6-2.1c-4.1-4.2-9.3-14.7-10.1-18.7c-0.4-0.7-1.3-0.9-2-0.5
			C3.3,9.5,2.8,7,3.4,6C4.1,5,5.8,4.4,7,4c0,0.8,0.6,1.7,1.4,1.7c5-1.5,15.2-1.6,20.2,0l0,0C29.4,5.7,30,4.8,30,4
			c1.8,0.5,3.1,1.2,3.5,2C34.1,6.9,33.9,8.6,33.3,10.8z"/>
		<path class="st0" d="M10.5,10.2c-1.3,2.3,5.5,14.9,8,14.9c2.6,0,9.2-12.6,8-14.9C25.2,7.9,11.7,7.9,10.5,10.2z"/>
	</svg>

	<svg id="user" viewBox="0 0 147 147">
		<style type="text/css">
			.st0{fill:url(#SVGID_1_);}
		</style>
		<radialGradient id="SVGID_1_" cx="73.5" cy="85.9633" r="64.4556" gradientTransform="matrix(1 0 0 -1 0 147)" gradientUnits="userSpaceOnUse">
			<stop  offset="0" style="stop-color:#CFD4EF"/>
			<stop  offset="1" style="stop-color:#7F849F"/>
		</radialGradient>
		<path class="st0" d="M73.5,3.1C34.6,3.1,3.1,34.6,3.1,73.4c0,17.4,6.3,33.3,16.7,45.5c2.2-2.3,5-4.2,8.7-5.5 c10.6-4.9,15-5.7,20.9-6.6c5.9-0.9,7.3-3.1,8-8.4c0.7-5.3,1.3-6.1,1.3-8.6c-3.5-2.4-4.6-6.8-4.8-9.2c-0.2-2.4-1.1-5-0.9-7.2 c-3.3,0.7-2.9-3.3-3.9-5.6c-0.4-0.8-2.2-6.1-2.6-9s0.6-4.2,2.6-2.9c-1.8-5.7-1.3-10.8-1.7-14.5c-0.4-3.7-2.2-12.8,4.6-14.7 c2.4-0.8,3.9-4.2,8-5.6c4.1-1.4,8.4-4,13.3-4c5,0,9.2,2.6,13.3,4c4.1,1.4,5.6,4.8,8,5.6c6.8,1.8,5,11,4.6,14.7 c-0.4,3.7,0.2,8.8-1.7,14.5c2-1.3,2.9,0,2.6,2.9c-0.4,2.9-2.2,8.1-2.6,9c-1,2.3-0.6,6.3-3.9,5.6c0.2,2.3-0.7,4.9-0.9,7.2 c-0.2,2.4-1.3,6.8-4.8,9.2c0,2.6,0.6,3.3,1.3,8.6c0.7,5.3,2.2,7.5,8,8.4c5.9,0.9,12.3,2.4,20.9,6.6c3.7,1.3,6.5,3.2,8.7,5.5 c10.4-12.3,16.7-28.2,16.7-45.5C143.9,34.6,112.4,3.1,73.5,3.1z"/>
	</svg>

</svg>